<?xml version="1.0" encoding="UTF-8"?>
<svg id="Calque_1" xmlns="http://www.w3.org/2000/svg" version="1.1" viewBox="0 0 2530 1576.16">
  <!-- Generator: Adobe Illustrator 29.8.0, SVG Export Plug-In . SVG Version: 2.1.1 Build 160)  -->
  <defs>
    <style>
      .st0 {
        fill: #fff;
      }

      .st1 {
        fill: none;
      }

      .st2 {
        fill: #f15a22;
      }
    </style>
  </defs>
  <path class="st2" d="M1487.67,33.39h-415.34c-265.43,0-479.72,215.17-479.72,479.72s215.17,479.72,479.72,479.72h415.34c264.55,0,479.72-215.17,479.72-479.72S1752.22,33.39,1487.67,33.39M30,1285.6v-197.53h63.49v75.84h99.65c63.49,0,115.52,52.03,115.52,115.52s-52.03,115.52-115.52,115.52h-49.38c-62.61,0-113.76-49.38-113.76-109.35M93.49,1279.43c0,29.98,19.4,53.79,54.67,53.79h40.56c29.1,0,54.67-23.81,54.67-53.79s-24.69-54.67-54.67-54.67h-95.24v54.67ZM455.93,1394.95c-63.49,0-115.52-51.15-115.52-115.52s52.03-115.52,115.52-115.52h65.26c63.49,0,115.52,52.03,115.52,115.52s-52.03,115.52-115.52,115.52h-65.26,0ZM570.56,1279.43c0-29.98-24.69-54.67-54.67-54.67h-55.56c-29.98,0-54.67,25.57-54.67,54.67s24.69,54.67,54.67,54.67h55.56c29.98,0,54.67-24.69,54.67-54.67M675.5,1279.43v-115.52h63.49v115.52c0,29.98,24.69,54.67,54.67,54.67h90.83v-170.19h63.49v231.04h-156.97c-69.66,0-115.52-45.86-115.52-115.52M1069.68,1394.95h-63.49v-307.76h63.49v307.76ZM1695.78,1278.54v115.52h-63.49v-115.52c0-29.98-24.69-54.67-54.67-54.67h-90.83v170.19h-63.49v-231.04h156.97c63.49,0,115.52,52.03,115.52,115.52M1734.59,1267.08c0-63.49,52.03-104.06,115.52-104.06h161.38v229.28c0,51.15-30.86,79.37-88.18,79.37h-119.93v-58.2h122.57c12.35,0,21.16-7.94,21.16-20.28v-21.16h-97c-63.49-.88-115.52-40.56-115.52-104.94M1947.99,1310.29v-86.42h-89.95c-29.98,0-54.67,13.23-54.67,42.33,0,30.86,24.69,43.21,54.67,43.21h89.95v.88ZM2308.66,1394.95h-141.98c-69.66,0-118.17-45.86-118.17-115.52,0-63.49,44.97-115.52,114.64-115.52h37.92c62.61,0,107.58,38.8,107.58,102.29v37.92h-194c7.05,20.28,25.57,31.75,54.67,31.75h139.33v59.08ZM2115.54,1251.21h131.39c0-17.64-13.23-32.63-44.97-32.63h-37.92c-25.57,0-41.45,12.35-48.5,32.63M2530,1163.02v60.85h-60.85c-29.98,0-54.67,24.69-54.67,54.67v115.52h-63.49v-115.52c0-69.66,45.86-115.52,115.52-115.52h63.49ZM1223.12,1163.02c-63.49,0-115.52,52.03-115.52,115.52s52.03,115.52,115.52,115.52h152.56v-231.04h-152.56ZM1312.19,1333.22h-83.77c-29.98,0-54.67-23.81-54.67-53.79s24.69-54.67,54.67-54.67h83.77v108.47Z"/>
  <path class="st1" d="M-277.76-274.37h3114.64V1998.12H-277.76V-274.37Z"/>
  <path class="st0" d="M1397.72,237.1h-325.4V33.39c-97.88,52.03-164.02,155.2-164.02,274.25v239.86c0,171.96,139.33,311.29,311.29,311.29h179.01c169.31-2.65,306-140.21,306-310.41-.88-171.08-137.57-309.52-306.88-311.29h0ZM1393.32,693.89h-173.72c-81.13,0-146.38-65.26-146.38-146.38v-146.38h320.11c81.13,0,146.38,65.26,146.38,146.38-.88,81.13-66.14,146.38-146.38,146.38Z"/>
</svg>