<?xml version="1.0" encoding="UTF-8" standalone="no"?>
<svg
   xmlns:dc="http://purl.org/dc/elements/1.1/"
   xmlns:cc="http://creativecommons.org/ns#"
   xmlns:rdf="http://www.w3.org/1999/02/22-rdf-syntax-ns#"
   xmlns:svg="http://www.w3.org/2000/svg"
   xmlns="http://www.w3.org/2000/svg"
   xmlns:xlink="http://www.w3.org/1999/xlink"
   xmlns:sodipodi="http://sodipodi.sourceforge.net/DTD/sodipodi-0.dtd"
   xmlns:inkscape="http://www.inkscape.org/namespaces/inkscape"
   id="Calque_1"
   viewBox="0 0 700.00002 235"
   version="1.1"
   inkscape:version="0.91 r13725"
   sodipodi:docname="Logo_total-direct-energie.svg"
   width="700"
   height="235">
  <metadata
     id="metadata31">
    <rdf:RDF>
      <cc:Work
         rdf:about="">
        <dc:format>image/svg+xml</dc:format>
        <dc:type
           rdf:resource="http://purl.org/dc/dcmitype/StillImage" />
        <dc:title></dc:title>
      </cc:Work>
    </rdf:RDF>
  </metadata>
  <defs
     id="defs29">
    <linearGradient
       inkscape:collect="always"
       id="linearGradient4541">
      <stop
         style="stop-color:#ffe500;stop-opacity:1"
         offset="0"
         id="stop4543" />
      <stop
         style="stop-color:#ffd400;stop-opacity:1"
         offset="1"
         id="stop4545" />
    </linearGradient>
    <linearGradient
       inkscape:collect="always"
       xlink:href="#linearGradient4541"
       id="linearGradient4547"
       x1="36.518951"
       y1="-62.877731"
       x2="36.518951"
       y2="-0.61291802"
       gradientUnits="userSpaceOnUse" />
  </defs>
  <sodipodi:namedview
     pagecolor="#ffffff"
     bordercolor="#666666"
     borderopacity="1"
     objecttolerance="10"
     gridtolerance="10"
     guidetolerance="10"
     inkscape:pageopacity="0"
     inkscape:pageshadow="2"
     inkscape:window-width="1440"
     inkscape:window-height="788"
     id="namedview27"
     showgrid="false"
     inkscape:zoom="0.48406837"
     inkscape:cx="38.836022"
     inkscape:cy="68.620296"
     inkscape:window-x="0"
     inkscape:window-y="1"
     inkscape:window-maximized="1"
     inkscape:current-layer="Calque_1" />
  <style
     id="style3">.st0{fill:#e10032}.st1{fill:#f59600}.st2{fill:#004196}.st3{fill:#4b96cd}.st4{fill:#7fcc5e}</style>
  <g
     id="g4549"
     transform="matrix(3.7756032,0,0,3.7756032,-14.136389,236.35686)">
    <path
       id="circle4530"
       d="M 34.861328,-62.591797 A 31.116472,31.116472 0 0 0 3.7441406,-31.476562 31.116472,31.116472 0 0 0 34.861328,-0.359375 31.116472,31.116472 0 0 0 65.976562,-31.476562 31.116472,31.116472 0 0 0 34.861328,-62.591797 Z m 0,15.751953 a 15.364565,15.364565 0 0 1 15.363281,15.363282 15.364565,15.364565 0 0 1 -15.363281,15.365234 15.364565,15.364565 0 0 1 -15.365234,-15.365234 15.364565,15.364565 0 0 1 15.365234,-15.363282 z"
       style="opacity:1;fill:url(#linearGradient4547);fill-opacity:1;fill-rule:evenodd;stroke:none;stroke-width:4;stroke-linecap:round;stroke-linejoin:round;stroke-miterlimit:4;stroke-dasharray:none;stroke-dashoffset:0;stroke-opacity:1"
       inkscape:connector-curvature="0" />
    <g
       style="fill:#6f7072;fill-opacity:1"
       id="g4511">
      <g
         style="fill:#6f7072;fill-opacity:1"
         id="g4503">
        <path
           sodipodi:nodetypes="ssssssssssss"
           style="fill:#6f7072;fill-opacity:1"
           id="path4303"
           d="m 96.265057,-55.150355 c -1.19758,0 -2.261057,1.063475 -2.261057,2.261055 0,1.19758 1.063477,2.263655 2.261057,2.263655 1.330644,0 2.263655,-1.066075 2.263655,-2.263655 0,-1.19758 -1.066075,-2.261055 -2.263655,-2.261055 z m 0,5.953405 c -1.064516,0 -1.860824,0.798906 -1.860824,1.863421 l 0,13.171303 c 0,1.064516 0.796308,1.863422 1.860824,1.863422 1.064515,0 1.863421,-0.798906 1.863421,-1.863422 l 0,-13.171303 c 0,-1.064515 -0.798906,-1.863421 -1.863421,-1.863421 z"
           inkscape:connector-curvature="0" />
        <path
           id="path4290"
           d="m 148.6043,-36.95554 c -0.26612,-0.266129 -0.79838,-0.532258 -1.19758,-0.532258 -0.39919,0 -0.66532,0.133064 -1.06451,0.399193 -1.33065,1.197581 -2.52823,1.729838 -4.125,1.729838 -2.79435,0 -4.92338,-2.262095 -4.92338,-5.322578 0,-3.060483 2.12903,-5.322578 4.92338,-5.322578 1.33065,0 2.52823,0.399193 3.45968,1.19758 0.26613,0.266129 0.66532,0.399193 1.06451,0.399193 0.53226,0 0.93145,-0.266129 1.19758,-0.665322 0.26613,-0.266129 0.3992,-0.665322 0.3992,-0.931451 0,-0.532258 -0.26613,-1.064516 -0.53226,-1.330645 -1.59678,-1.330645 -3.32661,-1.862902 -5.58871,-1.862902 -4.79032,0 -8.64919,3.858869 -8.64919,8.649189 0,4.790321 3.85887,8.64919 8.64919,8.64919 2.2621,0 5.05645,-1.19758 6.38709,-2.794353 0,0 0.3992,-0.532258 0.3992,-1.19758 0,-0.399194 -0.13307,-0.798387 -0.3992,-1.064516 z"
           style="fill:#6f7072;fill-opacity:1"
           inkscape:connector-curvature="0" />
        <path
           id="path4288"
           d="m 114.51641,-47.733761 c 0,-0.931452 -0.79838,-1.729838 -1.72983,-1.729838 -2.52823,0 -4.25807,0.798386 -5.72178,2.661289 l 0,-0.532258 c 0,-1.064516 -0.79838,-1.862902 -1.8629,-1.862902 -1.06451,0 -1.8629,0.798386 -1.8629,1.862902 l 0,13.173382 c 0,1.064515 0.79839,1.862902 1.8629,1.862902 1.06452,0 1.8629,-0.798387 1.8629,-1.862902 l 0,-7.052417 c 0,-3.326611 2.92742,-4.79032 5.72178,-4.79032 1.06451,0 1.72983,-0.798387 1.72983,-1.729838 z"
           style="fill:#6f7072;fill-opacity:1"
           inkscape:connector-curvature="0" />
        <path
           id="path4284"
           d="m 159.56482,-46.136988 c 0.79839,0 1.59677,-0.665322 1.59677,-1.596773 0,-0.931452 -0.66532,-1.596774 -1.59677,-1.596774 l -3.99193,0 0,-5.056449 c 0,-1.064516 -0.93146,-1.862903 -1.99597,-1.862903 -1.06452,0 -1.8629,0.798387 -1.8629,1.862903 l 0,15.302413 c 0,1.995966 0.53225,3.725804 1.59677,4.923385 1.19758,1.330644 2.79435,1.995966 4.92338,1.995966 l 1.33065,0 c 0.79839,0 1.59677,-0.798386 1.59677,-1.596773 0,-0.931451 -0.66532,-1.596774 -1.59677,-1.596774 l -0.79839,0 c -1.59677,0 -3.06048,-0.399193 -3.06048,-3.59274 l 0,-7.318545 3.85887,0 z"
           style="fill:#6f7072;fill-opacity:1"
           inkscape:connector-curvature="0" />
        <path
           id="path4282"
           d="m 87.997233,-57.84614 c -1.064516,0 -1.863421,0.798906 -1.863421,1.863421 l 0,8.248958 c -1.463709,-0.931452 -3.060483,-1.463189 -4.657256,-1.463189 -4.657256,0 -8.514047,3.859388 -8.514047,8.516644 0,4.657256 3.856791,8.514047 8.514047,8.514047 4.657256,0 8.38358,-3.724245 8.516644,-8.381501 l 0,-15.434959 c 0,-0.931451 -0.931451,-1.863421 -1.995967,-1.863421 z m -6.520677,12.373435 c 2.528224,0 4.657256,2.263656 4.657256,4.924945 0,2.661289 -2.129032,4.922344 -4.657256,4.922344 -2.528225,0 -4.657256,-2.261055 -4.657256,-4.922344 0,-2.661289 2.129031,-4.924945 4.657256,-4.924945 z"
           style="fill:#6f7072;fill-opacity:1"
           inkscape:connector-curvature="0" />
        <path
           id="path4278"
           d="m 122.34088,-49.329496 c -4.79032,0 -8.51404,3.85887 -8.51404,8.64919 0,4.790321 3.85886,8.64919 8.64919,8.64919 2.52822,0 5.32153,-1.066594 6.91831,-2.796432 0.39919,-0.399193 0.53278,-0.796308 0.53278,-1.195502 0,-0.266129 -0.13463,-0.666882 -0.26769,-0.93301 -0.26613,-0.399194 -0.79631,-0.665323 -1.1955,-0.665323 -0.3992,0 -0.66689,0.134105 -0.93301,0.400234 -1.33065,1.330645 -3.05997,1.995967 -4.7898,1.995967 -2.52823,0 -4.65674,-1.731397 -4.78981,-4.259622 l 11.44303,0 c 0.79838,0 1.46319,-0.532258 1.46319,-1.330645 -0.26613,-4.923385 -3.72633,-8.514047 -8.51665,-8.514047 z m 0,3.191469 c 2.2621,0 4.12552,1.597292 4.52471,3.859388 l -9.04682,0 c 0.39919,-2.39516 2.12695,-3.859388 4.52211,-3.859388 z"
           style="fill:#6f7072;fill-opacity:1"
           inkscape:connector-curvature="0" />
      </g>
      <g
         style="fill:#6f7072;fill-opacity:1"
         id="g4494">
        <path
           sodipodi:nodetypes="ssscsssssscs"
           style="fill:#6f7072;fill-opacity:1"
           id="path21"
           d="m 166.74865,-32.303355 c -1.19758,0 -2.26365,1.063475 -2.26365,2.261055 0,1.19758 1.06607,2.263655 2.26365,2.263655 1.33064,0 2.26106,-1.066075 2.26106,-2.263655 0.13306,-1.19758 -0.93042,-2.261055 -2.26106,-2.261055 z m 0,5.853051 c -1.06452,0 -1.86342,0.798906 -1.86342,1.863421 l 0,13.171303 c 0,1.064516 0.7989,1.8634217 1.86342,1.8634217 1.06452,0 1.86083,-0.7989057 1.86083,-1.8634217 l 0,-13.171303 c 0.13306,-1.064515 -0.79631,-1.863421 -1.86083,-1.863421 z"
           inkscape:connector-curvature="0" />
        <path
           id="path4292"
           d="m 101.90244,-26.716953 c -1.995967,0 -4.124998,1.064515 -5.322578,2.661289 l 0,-0.665322 c 0,-1.064516 -0.798387,-1.995967 -1.862903,-1.995967 -1.064516,0 -1.862902,0.931451 -1.862902,1.995967 l 0,13.173381 c 0,1.064516 0.798386,1.8629025 1.862902,1.8629025 1.064516,0 1.862903,-0.7983865 1.862903,-1.8629025 l 0,-7.45161 c 0,-3.060482 2.262095,-4.524191 4.258058,-4.524191 2.52823,0 3.99194,1.729838 3.99194,4.391127 l 0,7.45161 c 0,1.064515 0.79838,1.862902 1.8629,1.862902 1.06451,0 1.8629,-0.798387 1.8629,-1.862902 l 0,-7.584675 c 0.26613,-4.391127 -2.52822,-7.451609 -6.65322,-7.451609 z"
           style="fill:#6f7072;fill-opacity:1"
           inkscape:connector-curvature="0" />
        <path
           id="path4286"
           d="m 143.03542,-24.987115 c 0,-0.931452 -0.79839,-1.729838 -1.72984,-1.729838 -2.52823,0 -4.25806,0.798386 -5.72177,2.661289 l 0,-0.532258 c 0,-1.064516 -0.79839,-1.862902 -1.86291,-1.862902 -1.06451,0 -1.8629,0.798386 -1.8629,1.862902 l 0,13.173382 c 0,1.064515 0.79839,1.862902 1.8629,1.862902 1.06452,0 1.86291,-0.798387 1.86291,-1.862902 l 0,-7.052417 c 0,-3.326611 2.92741,-4.79032 5.72177,-4.79032 1.06451,0 1.72984,-0.798387 1.72984,-1.729838 z"
           style="fill:#6f7072;fill-opacity:1"
           inkscape:connector-curvature="0" />
        <path
           id="path4274"
           d="m 81.479153,-26.58285 c -4.79032,0 -8.516644,3.85887 -8.516644,8.64919 0,4.790321 3.858869,8.6491901 8.64919,8.6491901 2.528225,0 5.324135,-1.0665941 6.920909,-2.7964321 0.399193,-0.399193 0.532776,-0.796308 0.532776,-1.195502 0,-0.266129 -0.134621,-0.666882 -0.267685,-0.93301 -0.266129,-0.399194 -0.798906,-0.665323 -1.198099,-0.665323 -0.399194,0 -0.664285,0.134105 -0.930414,0.400234 -1.330644,1.330645 -3.059963,1.995967 -4.789801,1.995967 -2.528225,0 -4.656738,-1.731397 -4.789802,-4.259622 l 11.57557,0 c 0.798387,0 1.46319,-0.532258 1.46319,-1.330645 -0.266129,-4.923385 -3.858869,-8.514047 -8.64919,-8.514047 z m 0,3.191469 c 2.262096,0 4.125518,1.597292 4.524711,3.859388 l -9.049421,0 c 0.399193,-2.39516 2.12955,-3.859388 4.52471,-3.859388 z"
           style="fill:#6f7072;fill-opacity:1"
           inkscape:connector-curvature="0" />
        <path
           id="path4270"
           d="m 119.81552,-26.58285 c -4.79032,0 -8.51665,3.85887 -8.51665,8.64919 0,4.790321 3.85887,8.6491901 8.64919,8.6491901 2.52823,0 5.32414,-1.0665941 6.92091,-2.7964321 0.3992,-0.399193 0.53278,-0.796308 0.53278,-1.195502 0,-0.266129 -0.13462,-0.666882 -0.26769,-0.93301 -0.26612,-0.399194 -0.7989,-0.665323 -1.19809,-0.665323 -0.3992,0 -0.66429,0.134105 -0.93042,0.400234 -1.33064,1.330645 -3.05996,1.995967 -4.7898,1.995967 -2.52822,0 -4.65674,-1.731397 -4.7898,-4.259622 l 11.44302,0 c 0.79839,0 1.46319,-0.532258 1.46319,-1.330645 -0.13306,-4.923385 -3.72632,-8.514047 -8.51664,-8.514047 z m 0,3.191469 c 2.39516,0 4.12552,1.597292 4.52471,3.859388 l -9.04942,0 c 0.39919,-2.39516 2.12955,-3.859388 4.52471,-3.859388 z"
           style="fill:#6f7072;fill-opacity:1"
           inkscape:connector-curvature="0" />
        <path
           id="path4266"
           d="m 180.76088,-26.717993 c -4.79032,0 -8.51405,3.85887 -8.51405,8.64919 0,4.790321 3.85887,8.6491902 8.64919,8.6491902 2.52823,0 5.32154,-1.0639972 6.91832,-2.7938352 0.39919,-0.399193 0.53277,-0.798905 0.53277,-1.198099 0,-0.266129 -0.13462,-0.664283 -0.26768,-0.930412 -0.26613,-0.399193 -0.79631,-0.665322 -1.19551,-0.665322 -0.39919,0 -0.66688,0.134104 -0.933,0.400233 -1.33065,1.330644 -3.05997,1.995967 -4.78981,1.995967 -2.52822,0 -4.65673,-1.731398 -4.7898,-4.259623 l 11.57557,0 c 0.53226,0.133065 1.1981,-0.532776 1.1981,-1.198099 0,-4.923385 -3.59378,-8.64919 -8.3841,-8.64919 z m 0,3.326612 c 2.2621,0 4.12552,1.597292 4.52471,3.859388 l -9.04682,0 c 0.53225,-2.39516 2.26002,-3.859388 4.52211,-3.859388 z"
           style="fill:#6f7072;fill-opacity:1"
           inkscape:connector-curvature="0" />
        <path
           id="path4258"
           d="m 151.77765,-26.450304 c -4.65726,0 -8.51665,3.859388 -8.51665,8.516644 0,4.657256 3.85939,8.5140472 8.51665,8.5140472 1.72984,0 3.45916,-0.5317389 4.7898,-1.4631902 0,3.1935471 -1.99597,5.0574901 -5.32258,5.0574901 -1.59677,0 -2.66077,-0.134105 -3.45915,-0.4002339 -0.13307,0 -0.39972,-0.1325442 -0.53278,-0.1325442 -0.93145,0 -1.59574,0.6642831 -1.59574,1.5957343 0,0.6653223 0.39764,1.3327231 1.06296,1.4657875 0.93145,0.3991934 3.06048,0.6653223 4.65726,0.6653223 2.79435,0 5.05593,-0.7989057 6.78577,-2.5287437 1.46371,-1.463709 2.26313,-3.4601962 2.39619,-5.8553564 l 0,-13.43899 c -0.26612,-1.064516 -1.19706,-1.995967 -2.12851,-1.995967 -0.93145,0 -1.73035,0.664802 -1.86342,1.463189 -1.46371,-0.931452 -3.05996,-1.463189 -4.7898,-1.463189 z m -0.13255,3.459156 c 2.66129,0 4.78981,2.263135 4.78981,5.057488 0,2.794354 -2.12852,5.05489 -4.78981,5.05489 -2.66129,0 -4.79239,-2.260536 -4.79239,-5.05489 0,-2.794353 2.1311,-5.057488 4.79239,-5.057488 z"
           style="fill:#6f7072;fill-opacity:1"
           inkscape:connector-curvature="0" />
      </g>
    </g>
  </g>
</svg>
