<?xml version="1.0" encoding="UTF-8"?>
<svg id="Layer_1" xmlns="http://www.w3.org/2000/svg" version="1.1" viewBox="0 0 1250 1176.36">
  <!-- Generator: Adobe Illustrator 29.8.0, SVG Export Plug-In . SVG Version: 2.1.1 Build 160)  -->
  <defs>
    <style>
      .st0 {
        fill: #fff;
      }

      .st1 {
        fill: #ec1c24;
      }

      .st1, .st2 {
        fill-rule: evenodd;
      }

      .st3, .st2 {
        fill: #2b388f;
      }
    </style>
  </defs>
  <path class="st0" d="M603.37,1179.11c-152.96,0-301.72-48.22-418.85-135.82C67.25,955.64,0,840.87,0,728.45v-29.25l154.53-118.62c-6.3-31.43-9.48-63.56-9.48-95.8C145.05,217.48,362.53,0,629.83,0s484.79,217.48,484.79,484.79c0,35.69-3.89,71.18-11.57,105.74l146.95,126.15v27.26c0,112.08-66.33,219.12-186.76,301.42-114.74,78.4-266.32,125.64-426.81,133.03-10.98.5-22.11.75-33.06.75v-.03Z"/>
  <g>
    <polygon class="st1" points="683.8 128.82 788.98 821.81 708.68 821.81 708.68 795.76 757.52 795.76 683.05 301.71 603.49 821.81 579.7 821.81 683.8 128.82"/>
    <path class="st1" d="M723.86,543.46s-7.92-50.19,3.34-83.94c9.82-29.47,41.08-53.8,73.6-53.8,49.06,0,76.94,62.41,81.4,85-24.54-10.76-40.15-1.08-40.15-1.08,0,0,22.72,10.7,29,25.83,8.92,21.53,5.58,47.34,5.58,47.34,0,0-16.73-18.29-36.79-15.07,6.71,9.76,15.61,19.37,17.84,26.91,2.24,7.54,2.24,26.91,2.24,26.91,0,0-24.54-13.99-52.4-6.46-19.61,5.3-36.79,27.98-36.79,27.98l-4.46-35.51s17.84-15.07,30.11-19.37c19.71-6.92,35.69-3.22,35.69-3.22,0,0-10.03-11.84-27.88-11.84.5-4.93,2.68-13.72,8.92-21.53,7.39-9.24,17.84-11.84,17.84-11.84,0,0-14.49-10.76-31.22,2.16,0-20.45,6.21-32.65,14.95-42.86,8.47-9.86,29.65-14.18,29.65-14.18,0,0-13.39-34.44-44.61-33.36-22.29.76-40.15,13.99-51.3,41.96-8.26,20.71-3.34,57.74-3.34,57.74l-21.19,12.2h-.04Z"/>
  </g>
  <g>
    <path class="st3" d="M43.86,720.81v7.63c0,98.47,60.83,200.44,166.92,279.73,109.61,81.95,249.03,127.08,392.59,127.08,10.36,0,20.8-.24,31.05-.71,315.25-14.52,571.73-189.76,571.73-390.64v-7.11l-152.23-130.67,1.89-7.05c9.93-37.08,14.97-75.55,14.97-114.32,0-243.14-197.81-440.93-440.93-440.93S188.9,241.64,188.9,484.77c0,35.86,4.33,71.55,12.85,106.08l1.81,7.36-159.71,122.6h0ZM603.37,1104.32c-134.19,0-264.62-41.15-367.27-115.84-96.37-70.13-154.99-159.88-160.83-246.24l-.42-6.21,164.3-126.12-2.96-10.15c-10.85-37.19-16.35-75.88-16.35-114.99,0-226.07,183.92-409.99,409.99-409.99s409.99,183.92,409.99,409.99c0,41.61-6.19,82.62-18.42,121.92l-3.02,9.72,156.78,134.58-.37,5.77c-11.34,178.03-254.39,333.64-541.8,346.88-9.72.45-19.69.68-29.61.68h.01Z"/>
    <path class="st2" d="M310.39,788.08c4.55-.95,8.8-1.97,12.36-4.39l.17-.12,21.4,31.55-.51.34c-4.16-3.58-9.93-1.51-13.83,1.13l-75.02,68.45c-7.22,6.5-11.18,10.51-10.97,21.01l-.51.34-23.87-35.19.51-.34c6.19,5.12,12.01,2.77,17.77-1.13l74.61-65.78-124.77,24.97c.25-13.48,3.09-19.13,9.61-29.94l52.9-86.46-79.9,39c-11.32,5.55-19.65,9.32-17.38,20.3l-.51.34-20.16-29.73.51-.34c11.45,3.42,20.5-1.12,30.64-5.87l78.03-37.74c5.23-2.49,13.37-5.08,11.93-16.33l.51-.34,21.65,31.92-.17.12c-2.72,1.84-4.26,5.02-5.9,7.73l-51.46,84.95,92.37-18.44h0Z"/>
    <path class="st2" d="M462.25,950.66c-20.15,42.74-70.18,57.06-111.87,37.4-41.49-19.55-62.45-65.8-42.2-108.77,18.77-39.81,69.04-56.82,112.54-35.02,44.11,20.53,59.31,68.67,41.53,106.39h0ZM332.94,888.68c-13.83,29.33-7.31,69.28,25.59,84.78,31.85,15.02,63.13,1.34,77.85-29.88,14.43-30.6,8.86-69.33-24.24-84.94-32.48-15.31-64.29-1.62-79.2,30.02h0Z"/>
    <path class="st2" d="M494.46,1011.35c-1.6,12.23-2.99,20.95,8.38,29.34l-.09.66-40.92-5.38.09-.66c13.15-5.15,14.29-13.9,15.91-26.14l11.47-87.21c1.6-12.24,2.76-20.99-8.4-29.13l.09-.66,33.76,4.44-.03.22c.58,2.75,1.37,3.96,2.75,5.92l2.66,4.81,71.35,112.11,10.89-82.83c1.6-12.24,3-20.95-8.4-29.11l.09-.66,40.7,5.35-.09.66c-12.89,4.97-14.04,13.72-15.65,25.96l-16.12,122.63c-15.73-7.4-21.95-15.56-30.5-29.35l-66.8-105.52-11.13,84.6h0v-.04Z"/>
    <path class="st2" d="M749.74,923.97c-13.26-5.47-27.96-7.76-42.25-5.22-29.88,5.3-46.79,30.86-41.21,62.25,5.65,31.84,32.34,56.35,65.69,50.42,16.23-2.88,31.43-11.6,43.69-21.82l.66-.12-6.59,27.08c-9.34,6.58-20.28,10.3-31.55,12.3-51.09,9.07-87.78-13.9-96.01-60.23-7.96-44.82,18.38-80.1,62.77-87.98,13.22-2.34,27.05-2.34,40.37-1.58l4.42,24.89h.03Z"/>
    <path class="st2" d="M869.4,987.39c12.9-5.38,21.36-15.5,26.2-28.75l.55-.28,4.13,32.21-75.38,37.5-.32-.62c7.51-8.36-1.2-23.09-5.83-32.39l-38.73-77.85c-4.72-9.51-11.13-25.12-22.42-24.39l-.32-.62,35.03-17.42.32.62c-7.4,8.57,1.49,23.22,6.1,32.51l44.79,90.04,25.85-10.56h.01Z"/>
    <path class="st2" d="M961.51,925.9l22.18-15.77c11.51-8.23,19.46-21.47,20.95-35.99l.49-.42,12.27,28.65-67,58.47-.45-.51c5.52-10.22-6.46-22-13.15-29.68l-56.13-64.32c-6.85-7.85-16.75-21.15-27.77-17.23l-.45-.51,51.42-44.87c2.74-2.38,5.76-4.43,6.81-7.43l.49-.42,17.41,19.96-.49.42c-10.34-1.8-17.53,3.27-24.91,9.72-5.63,4.92-11.1,9.98-15.35,15.49l27.69,31.73,19.12-16.69c2.56-2.24,5.14-4.48,6.17-7.19l.49-.42,15.78,18.08-.49.42c-6.88-2.7-13.48,3.37-18.46,7.71l-11.89,10.38,35.28,40.44h-.03Z"/>
    <path class="st2" d="M962.02,739.3c17.58-22.68,38.98-25.88,54.34-13.98,14.86,11.52,16.4,33.57,8.84,49.94l49.45-.7c14.29-.3,31.34-4.17,44.88-9.11l-12.07,15.58c-6.96,8.97-13.48,12.86-23.66,13.1l-41.5.89-35.87-2.87c8.47-15.11,14.44-35.69-1.42-47.99-12.15-9.42-27.38-4.42-35.66,7.31-2.85,4.02-5.23,8.14-7.57,12.56l75.6,58.61c7.77,6.02,19.3,16.58,29.02,10.3l.51.39-25.06,32.34-.51-.39c3.66-10.98-9.74-19.48-17.35-25.37l-63.62-49.33c-7.77-6.02-19.17-16.75-29.06-10.6l-.51-.39,31.23-40.29h.01Z"/>
    <g>
      <path class="st2" d="M502.1,601.52s-29.88-8.25-37.31-58.47c-7.44-50.21-8.07-64.91-18.33-84.81-12.43-24.1-53.04-35.72-53.04-35.72,0,0,32.7-35.87,41.62-64.57s50.55-38.74,50.55-38.74c0,0-10.39,14.72-12.64,21.16-2.26,6.44-3.34,15.07-3.34,15.07,0,0,8.64-11.65,33.55-13.08-7.57,32.57-9.7,54.11-3.45,80.87,7.81,33.36,36.28,48.25,36.28,48.25l-3.06,21.66s-41.29-23.32-48.56-46.92c-7.26-23.59-10.3-41.28-10.23-70.51-7.88,6.63-16.79,21.7-16.79,21.7,0,0-2.51-12.23-11.15-15.07-1.12,7.54-21.19,33.36-21.19,33.36,0,0,30.11,11.84,42.37,35.51,12.27,23.67,13.39,58.12,18.96,90.4,4.46,25.83,18.96,34.43,18.96,34.43l-3.2,25.46v.03Z"/>
      <polygon class="st2" points="645.6 659.16 668.85 821.93 691.4 821.93 656.17 578.13 645.6 659.16"/>
      <polygon class="st2" points="629.07 402.45 588.19 129.14 483 822.13 563.28 822.13 563.28 796.07 516.45 796.07 588.94 302.02 617.93 486.39 629.07 402.45"/>
    </g>
  </g>
</svg>