<?xml version="1.0" encoding="UTF-8"?>
<svg id="Calque_1" xmlns="http://www.w3.org/2000/svg" version="1.1" viewBox="0 0 800 449.41">
  <!-- Generator: Adobe Illustrator 29.8.0, SVG Export Plug-In . SVG Version: 2.1.1 Build 160)  -->
  <defs>
    <style>
      .st0 {
        fill: #fff;
      }

      .st0, .st1 {
        fill-rule: evenodd;
      }
    </style>
  </defs>
  <path class="st0" d="M0-190.71h800v800H0V-190.71Z"/>
  <path class="st1" d="M151.43,94.49c-45.55,53.49-89.22,119.83-89.66,169.41-.17,18.66,5.79,34.94,20.07,47.28,20.56,17.77,43.21,24.03,65.76,24.07,32.94.05,65.65-13.24,91.27-23.49,43.13-17.25,519.95-224.31,519.95-224.31,4.6-2.3,3.74-5.18-2.02-3.74-2.32.58-519.09,140.63-519.09,140.63-9.79,2.77-19.9,4.22-30.08,4.31-39.71.24-75.05-21.81-74.77-68.26.11-18.18,5.67-40.1,18.57-65.88h0Z"/>
</svg>