<?xml version="1.0" encoding="UTF-8"?>
<svg id="Calque_1" xmlns="http://www.w3.org/2000/svg" version="1.1" viewBox="0 0 157 157">
  <!-- Generator: Adobe Illustrator 29.8.0, SVG Export Plug-In . SVG Version: 2.1.1 Build 160)  -->
  <defs>
    <style>
      .st0 {
        fill: #151631;
      }

      .st1 {
        fill: #0028e2;
      }
    </style>
  </defs>
  <path class="st0" d="M151.56,76.86c1.1,0,1.84.75,1.84,2.41v2.21h-6.69v-2.23c0-1.34.75-1.95,1.59-1.95.32,0,.62.09.88.27.26.19.44.45.53.76.08-.43.31-.81.65-1.08.34-.27.77-.41,1.2-.39ZM147.42,80.67h2.09v-1.32c0-.8-.45-1.24-1.06-1.24s-1,.41-1,1.23l-.02,1.34ZM151.45,77.65c-.78,0-1.31.53-1.31,1.63v1.4h2.56v-1.38c0-1.16-.47-1.65-1.25-1.65Z"/>
  <path class="st0" d="M151.83,71.45v3.45l1.59.67v.84l-6.69-2.88v-.73l6.69-2.88v.85l-1.59.67ZM151.16,71.73l-3.41,1.44,3.41,1.44v-2.89Z"/>
  <path class="st0" d="M146.71,68.93v-.79l5.35-3.83v-.07h-5.35v-.79h6.69v.79l-5.34,3.83v.07h5.35v.79h-6.7Z"/>
  <path class="st0" d="M150.29,59.7l1.06.98h2.07v.79h-6.69v-.77h3.59l-3.59-3.26v-.99l3.03,2.78,3.66-3.03v.93l-3.13,2.57Z"/>
  <path class="st0" d="M69.84,74.32c0,4.15-3,7.15-9.24,7.15h-9.56v-25.27h8.86c5.2,0,7.97,3,7.97,6.43,0,1.03-.3,2.04-.86,2.9-.57.86-1.37,1.53-2.32,1.94,1.49.42,2.8,1.32,3.74,2.56.93,1.24,1.43,2.75,1.43,4.3ZM56.84,61.25v4.7h2.6c1.81,0,2.66-1.06,2.66-2.45s-1.01-2.24-2.74-2.24h-2.51ZM63.99,73.3c0-1.59-.9-2.92-3.94-2.92h-3.21v6.03h3.43c2.6,0,3.72-1.23,3.72-3.11Z"/>
  <path class="st0" d="M83.16,61.5v4.78h8.41v4.94h-8.41v10.25h-5.81v-25.28h16.07v5.31h-10.26Z"/>
  <path class="st0" d="M120.72,68.83c0,7.76-6,13-13.15,13s-13.16-5.24-13.16-13,6-13,13.14-13,13.16,5.23,13.16,13ZM114.69,68.83c0-4.44-3.03-7.55-7.11-7.55s-7.07,3.11-7.07,7.55,3,7.54,7.07,7.54,7.11-3.1,7.11-7.54Z"/>
  <path class="st0" d="M131.71,73.2h-3.1v8.27h-5.81v-25.28h8.99c5.67,0,9.42,3.43,9.42,8.7,0,3.36-1.59,5.88-4.25,7.18l6.05,9.4h-6.14l-5.16-8.27ZM128.61,68.25h2.81c2.35,0,3.97-.83,3.97-3.36s-1.62-3.36-3.97-3.36h-2.81v6.71Z"/>
  <path class="st1" d="M35.47,63.33c.19-.75.33-1.52.33-2.33,0-5.28-4.21-9.56-9.4-9.56-2.03,0-3.9.66-5.44,1.77-1.54-1.11-3.41-1.77-5.44-1.77-5.19,0-9.4,4.28-9.4,9.56,0,.81.13,1.58.33,2.33-.48.48-.91.99-1.3,1.52-1.54,2.07-2.43,4.47-2.43,7.04,0,7.8,8.17,14.13,18.24,14.13s18.24-6.33,18.24-14.13c0-3.22-1.39-6.18-3.73-8.56ZM32.62,74.29c-1.59,1.75-5.34,4.88-11.69,4.88s-10.16-3.14-11.72-4.88c-.5-.57-.32-1.45.37-1.77,2.04-.95,6.36-2.62,11.35-2.62s9.29,1.66,11.33,2.61c.69.32.87,1.22.36,1.78h0Z"/>
</svg>