<?xml version="1.0" encoding="UTF-8"?>
<svg xmlns="http://www.w3.org/2000/svg" xmlns:xlink="http://www.w3.org/1999/xlink" version="1.1" viewBox="0 0 113.3858 56.6924">
  <defs>
    <clipPath id="clippath">
      <rect x="14.1735" y="9.2767" width="85.0391" height="38.1396" fill="none"/>
    </clipPath>
  </defs>
  <!-- Generator: Adobe Illustrator 28.7.1, SVG Export Plug-In . SVG Version: 1.2.0 Build 142)  -->
  <g>
    <g id="Capa_1">
      <g>
        <polygon points="52.3134 9.2761 52.3134 17.2528 60.3888 17.2528 60.3888 47.2494 98.961 47.2494 98.961 9.2761 52.3134 9.2761" fill="#44787e"/>
        <polygon points="14.1732 9.2881 14.1732 47.2492 60.3883 47.2492 60.3883 39.5751 52.3127 39.5751 52.3127 17.2515 52.3127 9.2881 14.1732 9.2881" fill="#2e407d"/>
        <g clip-path="url(#clippath)">
          <path d="M42.8117,35.8704l-.7423,2.8947c-2.0222,1.0521-4.4144,1.4582-6.674,1.4582-7.2138,0-12.6573-4.4541-12.6573-11.339,0-8.7708,6.0509-12.7887,13.3985-12.7887,2.227,0,4.9229.5785,6.8788,1.6631-.3037,1.1461-.5061,2.2885-.7773,3.4635h-.47c-1.2485-1.8125-3.4045-3.0911-5.5978-3.0911-5.5966,0-7.8549,5.3423-7.8549,10.282,0,5.7436,2.8332,9.7748,8.0248,9.7748,2.0909,0,4.5156-1.075,6.0341-2.5187l.4374.2012Z" fill="#fff"/>
          <path d="M90.0209,35.8704l-.7387,2.8947c-2.0234,1.0521-4.4168,1.4582-6.6764,1.4582-7.2138,0-12.6573-4.4541-12.6573-11.339,0-8.7708,6.0509-12.7887,13.3984-12.7887,2.2259,0,4.923.5785,6.8789,1.6631-.3049,1.1461-.5074,2.2885-.7749,3.4635h-.4724c-1.2485-1.8125-3.4057-3.0911-5.5978-3.0911-5.5978,0-7.8537,5.3423-7.8537,10.282,0,5.7436,2.832,9.7748,8.0224,9.7748,2.0921,0,4.5192-1.075,6.0364-2.5187l.4351.2012Z" fill="#fff"/>
        </g>
        <rect x="52.313" y="17.2522" width="8.0755" height="22.3212" fill="#c63922"/>
        <rect x="14.1735" y="9.2767" width="85.0391" height="38.1396" fill="none"/>
      </g>
    </g>
  </g>
</svg>