<?xml version="1.0" encoding="UTF-8"?>
<svg id="Calque_1" xmlns="http://www.w3.org/2000/svg" version="1.1" xmlns:xlink="http://www.w3.org/1999/xlink" viewBox="0 0 113.39 114.33">
  <!-- Generator: Adobe Illustrator 29.8.0, SVG Export Plug-In . SVG Version: 2.1.1 Build 160)  -->
  <defs>
    <style>
      .st0 {
        fill: #fff;
      }

      .st1 {
        fill: #c63922;
      }

      .st2 {
        fill: none;
      }

      .st3 {
        fill: #2e407d;
      }

      .st4 {
        fill: #44787e;
      }

      .st5 {
        clip-path: url(#clippath);
      }
    </style>
    <clipPath id="clippath">
      <rect class="st2" x="1.69" y="35.3" width="110" height="44.85"/>
    </clipPath>
  </defs>
  <g id="Capa_1">
    <g>
      <polygon class="st4" points="51.03 35.29 51.03 44.67 61.47 44.67 61.47 79.95 111.37 79.95 111.37 35.29 51.03 35.29"/>
      <polygon class="st3" points="1.69 35.31 1.69 79.95 61.47 79.95 61.47 70.92 51.03 70.92 51.03 44.67 51.03 35.31 1.69 35.31"/>
      <g class="st5">
        <g>
          <path class="st0" d="M38.74,66.57l-.96,3.4c-2.62,1.24-5.71,1.71-8.63,1.71-9.33,0-16.37-5.24-16.37-13.33,0-10.31,7.83-15.04,17.33-15.04,2.88,0,6.37.68,8.9,1.96-.39,1.35-.65,2.69-1.01,4.07h-.61c-1.61-2.13-4.4-3.63-7.24-3.63-7.24,0-10.16,6.28-10.16,12.09,0,6.75,3.66,11.49,10.38,11.49,2.7,0,5.84-1.26,7.81-2.96,0,0,.57.24.57.24Z"/>
          <path class="st0" d="M99.8,66.57l-.96,3.4c-2.62,1.24-5.71,1.71-8.64,1.71-9.33,0-16.37-5.24-16.37-13.33,0-10.31,7.83-15.04,17.33-15.04,2.88,0,6.37.68,8.9,1.96-.39,1.35-.66,2.69-1,4.07h-.61c-1.61-2.13-4.41-3.63-7.24-3.63-7.24,0-10.16,6.28-10.16,12.09,0,6.75,3.66,11.49,10.38,11.49,2.71,0,5.85-1.26,7.81-2.96,0,0,.56.24.56.24Z"/>
        </g>
      </g>
      <rect class="st1" x="51.03" y="44.67" width="10.45" height="26.25"/>
      <rect class="st2" x="1.69" y="35.3" width="110" height="44.85"/>
    </g>
  </g>
</svg>