<?xml version="1.0" encoding="UTF-8"?>
<svg id="Calque_1" xmlns="http://www.w3.org/2000/svg" version="1.1" viewBox="0 0 487 487.93">
  <!-- Generator: Adobe Illustrator 29.8.0, SVG Export Plug-In . SVG Version: 2.1.1 Build 160)  -->
  <defs>
    <style>
      .st0 {
        fill: #dc0028;
        fill-rule: evenodd;
      }
    </style>
  </defs>
  <path class="st0" d="M406.19,217.74h-.45l.92,3.6.45,3.63.45,7.72-.45,6.82-1.36,7.68-1.35,7.28-2.73,6.78-3.16,7.28-3.63,6.32-4.52,6.39-5.03,5.42-5.42,5.43-5.01,3.66-6.34,4.07-6.81,4.07-7.28,3.16-7.23,2.28-7.73,1.83-7.68,1.33h-2.3l-3.6-4.99-2.71-2.71-5.43-6.35-5.9-5.43-6.81-4.99-6.78-4.52-7.28-4.07-7.7-3.66-8.19-2.69-9.96-2.74-8.61-1.33-8.19-.47-3.16-.45-1.81-4.54-2.71-6.81-2.28-7.7-.88-6.82-.92-7.68.45-7.73.88-7.28,1.83-7.23,1.83-7.28,3.6-6.81,3.63-6.34,4.56-5.89,4.99-5.9,5.4-5.43,6.37-4.99,6.35-4.07,7.23-4.07,7.28-2.74,7.28-2.69,7.68-1.83,8.15-1.35h11.82l7.72.42,7.7,1.36,7.68,1.83,7.29,2.71,7.28,3.19,6.32,4.07,6.81,4.52.92.47-74.81-120.66-118.36.91-72.09,116.54,4.99-3.18,7.28-3.6,7.25-2.74,7.7-2.69,7.72-1.38,8.17-1.36,7.68-.42,8.19.42,7.7,1.36,7.72,1.38,7.7,2.69,7.28,2.74,6.78,3.6,6.35,4.07,5.89,4.54,5.46,5.43,4.99,5.9,1.36,1.36-1.83,4.07-3.16,7.28-3.19,7.7-1.8,7.72-1.36,7.7-.92,8.15v7.72l.92,8.15,1.36,8.19,2.24,7.7,3.63,9.51,3.65,7.28.47,1.36-3.19,4.07-2.71,2.74-4.99,4.99-5.89,4.99-6.37,4.52-6.78,3.63-7.25,3.16-6.81,2.73-7.7,1.38-8.17,1.33-7.25.45-8.17-.45-7.72-.92-7.7-1.8-7.28-2.28-10.43-4.52-6.81-3.63-6.34-4.07-5.89-4.99-5.46-5.43-4.97-5.9-4.54-6.35-3.65-6.35-3.63-8.15-1.81-6.82-1.8-7.23-.47-7.72-.45-7.28.45-4.07v-1.35L6.25,342.89l56.69,97.95,155.53-.45-4.52-1.35-3.65-1.36-7.25-3.19-6.78-3.63-6.37-4.52-5.89-4.99-5.46-5.43-4.99-5.9-4.05-6.35-4.07-6.32-2.73-7.29-2.27-7.23-1.83-9.55-.47-7.68.47-7.28.45-7.25,1.38-7.28,2.27-7.28,3.18-7.23.89-1.81,4.99-.47h4.1l8.15-1.33,8.61-2.28,7.72-2.27,7.7-3.19,7.72-4.07,6.81-4.07,6.78-4.99,8.59-7.72,5.46-5.87,4.97-6.35,1.38-1.36h.92l4.52.45,7.28,1.36,8.15,1.8,7.28,2.74,7.23,3.16,6.82,4.07,5.9,4.52,5.89,4.57,4.99,5.4,4.99,5.9,4.07,6.35,3.6,6.82,2.71,6.76,2.28,7.28,1.38,7.28.92,7.23v5.9l-.47,7.73-1.36,6.76-2.28,7.28-2.71,7.23-3.16,6.37-4.99,8.59-4.99,5.43-4.52,5.46-6.35,4.99-5.9,4.52-6.82,4.07-7.23,3.19-7.28,2.71-1.83.45h149.66l61.23-102.89-73.48-119.27h.01Z"/>
</svg>