<?xml version="1.0" encoding="UTF-8"?>
<svg id="Calque_1" xmlns="http://www.w3.org/2000/svg" version="1.1" xmlns:inkscape="http://www.inkscape.org/namespaces/inkscape" xmlns:sodipodi="http://sodipodi.sourceforge.net/DTD/sodipodi-0.dtd" xmlns:svg="http://www.w3.org/2000/svg" xmlns:xlink="http://www.w3.org/1999/xlink" viewBox="0 0 270 269.71">
  <!-- Generator: Adobe Illustrator 29.8.0, SVG Export Plug-In . SVG Version: 2.1.1 Build 160)  -->
  <defs>
    <style>
      .st0 {
        fill: #39a8e5;
      }

      .st1 {
        fill: none;
      }

      .st2 {
        clip-path: url(#clippath-1);
      }

      .st3 {
        fill: #164194;
      }

      .st4 {
        clip-path: url(#clippath);
      }
    </style>
    <clipPath id="clippath">
      <rect class="st1" x="-21.59" y="-.75" width="345.8" height="300.8"/>
    </clipPath>
    <clipPath id="clippath-1">
      <rect class="st1" x="-21.59" y="-.75" width="345.8" height="300.8"/>
    </clipPath>
  </defs>
  <sodipodi:namedview id="namedview839" bordercolor="#666666" borderopacity="1.0" inkscape:current-layer="Calque_1" inkscape:cx="130.68341" inkscape:cy="90.08649" inkscape:pagecheckerboard="0" inkscape:pageopacity="0.0" inkscape:pageshadow="2" inkscape:window-height="1080" inkscape:window-maximized="0" inkscape:window-width="1920" inkscape:window-x="0" inkscape:window-y="0" inkscape:zoom="2.5864033" pagecolor="#ffffff" showgrid="false"/>
  <g id="g836">
    <g class="st4">
      <path id="path832" class="st0" d="M64.2,64.06l54.9,25h84.12l6.96-12.06c4.22-7.26-.88-15.98-8.53-15.98H64.78c-1.86,0-2.26,2.26-.59,3.04M68.02,172.69l71.77-1.37c8.73-.2,18.92-5.2,23.63-13.24l10.78-18.73-109.81,29.71c2.26.98,3.24,2.26,3.63,3.63M256.07,99.75H119.1L7.72,170.24c-1.37,1.08-.2,3.14,1.37,2.75l247.86-67.16c1.18-.29,2.26-1.37,2.26-3.04,0-1.86-1.57-3.04-3.14-3.04"/>
    </g>
    <g class="st2">
      <path id="path834" class="st3" d="M122.14,175.83l19.41,21.57h5.98v-30.69h-6.27v21.08l-19.02-21.08h-6.27v30.69h6.27v-21.57h-.1ZM200.67,156.42h18.33l3.63-5.88h-17.65v-24.71h-6.57v28.43c0,1.27.78,2.16,2.26,2.16M51.25,207.4c-3.73,0-7.84.1-11.08.2v30.69h6.47v-9.12h5c9.8,0,16.86-2.45,16.86-11.08.1-7.65-5.98-10.69-17.26-10.69M60.57,221.42c-1.86,1.86-5.49,1.86-9.31,1.86h-4.61v-9.8h4.61c5,0,7.75.2,9.51,1.96.59.59,1.08,1.76,1.08,2.75,0,1.37-.39,2.35-1.27,3.24M212.54,197.99c8.92,0,15.1-4.61,15.1-13.92v-17.35h-6.47v16.86c0,5.49-2.75,8.63-8.63,8.63s-8.63-3.14-8.63-8.63v-16.86h-6.47v17.35c0,9.22,6.18,13.92,15.1,13.92M172.34,197.4c4.22,0,8.04-1.27,10.69-3.04l1.18,1.57c.78,1.18,2.35,1.47,4.02,1.47h5.29l-5.98-6.96c2.26-2.45,3.33-5.59,3.33-8.63,0-8.73-7.16-15.59-18.53-15.59s-18.53,6.96-18.53,15.59,7.26,15.59,18.53,15.59M172.34,171.91c6.77,0,11.86,4.02,11.86,9.8s-5.1,9.8-11.86,9.8-11.77-4.02-11.77-9.8,5-9.8,11.77-9.8M82.43,191.81h18.82l1.86,3.63c.88,1.86,1.76,1.96,4.12,1.96h3.82l-16.08-30.98h-6.27l-16.08,30.98h6.96l2.84-5.59ZM91.85,173.08l6.47,12.84h-12.94l6.47-12.84ZM89.69,207.01c-11.57,0-18.53,7.16-18.53,15.98s6.96,15.98,18.53,15.98,18.53-7.16,18.53-15.98-6.86-15.98-18.53-15.98M89.69,233.09c-6.96,0-11.86-4.02-11.86-10.1s4.9-10.1,11.86-10.1,11.77,4.02,11.77,10.1-4.9,10.1-11.77,10.1M63.71,181.61h0c3.63-1.08,5.78-3.43,5.78-7.06,0-5.59-4.8-8.04-14.12-8.04-4.51,0-11.18,0-15.29.2v30.69c4.9.2,10.29.2,14.8.2,9.12,0,15.49-2.06,15.49-8.73.1-3.63-2.65-6.37-6.67-7.26M46.65,172h9.8c3.92,0,6.37.88,6.37,3.33,0,3.14-2.55,3.73-7.35,3.73h-8.92v-7.06h.1ZM55.96,192.01h-9.31v-7.35h10.59c3.63,0,6.37.78,6.37,3.63.1,3.14-3.14,3.73-7.65,3.73M213.81,207.59h-6.47v28.43c0,1.27.78,2.16,2.26,2.16h21.96v-5.88h-17.65v-24.71h-.1ZM235.28,236.13c0,1.27.78,2.16,2.26,2.16h25v-5.88h-20.69v-6.77h18.53v-5.88h-18.53v-6.18h20.69v-5.88h-27.16v28.43h-.1ZM235.28,195.14c0,1.27.78,2.16,2.26,2.16h25v-5.88h-20.69v-6.77h18.53v-5.88h-18.53v-6.18h20.69v-5.88h-27.16v28.43h-.1ZM255.58,154.45c.88,1.86,1.76,1.96,4.12,1.96h3.82l-16.08-30.98h-6.27l-16.08,30.98h6.96l2.84-5.59h18.82l1.86,3.63ZM237.83,145.14l6.47-12.84,6.47,12.84h-12.94ZM119.2,215.83c0-2.26,2.94-3.33,6.96-3.33,3.14,0,7.45,1.57,8.43,2.26l3.33-4.9c-1.96-1.27-7.35-2.75-11.57-2.75-7.84,0-13.82,4.12-13.82,9.8,0,10.69,20.79,6.96,20.79,13.14,0,2.55-3.73,3.43-6.86,3.43-4.31,0-9.22-1.47-12.26-3.82l-3.33,4.9c4.12,2.84,10.39,4.41,15,4.41,7.75,0,14.22-3.63,14.22-9.61-.1-10.98-20.88-7.84-20.88-13.53M170.97,207.59h-29.9v5.88h11.67v24.71h6.47v-24.71h11.77v-5.88ZM181.85,207.3l-16.08,30.98h6.96l2.84-5.59h18.82l1.86,3.63c.88,1.86,1.76,1.96,4.12,1.96h3.82l-16.08-30.98h-6.27ZM178.52,226.91l6.47-12.84,6.47,12.84h-12.94Z"/>
    </g>
  </g>
</svg>