<?xml version="1.0" encoding="UTF-8"?>
<svg id="Calque_1" xmlns="http://www.w3.org/2000/svg" version="1.1" viewBox="0 0 359 349">
  <!-- Generator: Adobe Illustrator 29.8.0, SVG Export Plug-In . SVG Version: 2.1.1 Build 160)  -->
  <path d="M104.1,137.51c19.26,19.26,44.87,30.18,71.48,32.17-1.79-26.61-12.91-52.22-32.17-71.48-19.26-19.26-44.08-30.18-71.48-32.17,1.79,26.61,12.91,52.22,32.17,71.48ZM259.76,137.51c-19.26,19.26-44.87,30.18-71.48,32.17,1.79-26.61,12.91-52.22,32.17-71.48,18.27-19.26,44.08-30.18,71.48-32.17-1.99,26.61-12.91,52.22-32.17,71.48h0ZM259.76,213.55c-19.26-19.26-44.87-30.18-71.48-32.17,1.79,26.61,12.91,52.22,32.17,71.48,19.26,19.26,44.87,30.18,71.48,32.17-1.99-27.4-12.91-53.21-32.17-71.48h0ZM104.1,213.55c19.26-19.26,44.87-30.18,72.47-32.17-1.79,26.61-12.91,52.22-32.17,71.48-20.25,19.26-45.07,30.38-72.47,32.17,1.79-27.4,12.91-53.21,32.17-71.48Z"/>
</svg>