<?xml version="1.0" encoding="UTF-8"?>
<svg id="Revolut--Streamline-Simple-Icons" xmlns="http://www.w3.org/2000/svg" version="1.1" viewBox="0 0 24 24">
  <!-- Generator: Adobe Illustrator 29.8.0, SVG Export Plug-In . SVG Version: 2.1.1 Build 160)  -->
  <path d="M19.8,7.59c0-3.36-2.73-6.09-6.09-6.09H3.62v3.38h9.61c1.52,0,2.78,1.19,2.81,2.66.01.74-.26,1.43-.78,1.95-.52.52-1.2.81-1.94.81h-3.74c-.13,0-.24.11-.24.24v3c0,.05.02.1.05.14l6.35,8.81h4.65l-6.36-8.83c3.2-.16,5.78-2.85,5.78-6.08ZM7.53,6.68h-3.91v15.82h3.91V6.68Z"/>
</svg>